PathFileType	4	(X/Y/Z)	s11c0303.trc
DataRate	CameraRate	NumFrames	NumMarkers	Units	OrigDataRate	OrigDataStartFrame	OrigNumFrames
200	200	4	48	mm	200	500	2000
Frame#	Time	racr			lacr			c7			jug			rlel			rdr			llel			ldr			s2			lic			ric			lasi			rasi			rpsi			lpsi			rgt			lgt			rth1			rth2			rth3			rth4			rlfc			rmfc			rsh1			rsh2			rsh3			rsh4			rlmal			rcal			rtoe			rmt5			lth1			lth2			lth4			lth3			llfc			lmfc			llmal			lcal			lmt5			lsh1			lsh2			lsh3			lsh4			ltoe			SBIKE			LBIKE			RBIKE			
		X1	Y1	Z1	X2	Y2	Z2	X3	Y3	Z3	X4	Y4	Z4	X5	Y5	Z5	X6	Y6	Z6	X7	Y7	Z7	X8	Y8	Z8	X9	Y9	Z9	X10	Y10	Z10	X11	Y11	Z11	X12	Y12	Z12	X13	Y13	Z13	X14	Y14	Z14	X15	Y15	Z15	X16	Y16	Z16	X17	Y17	Z17	X18	Y18	Z18	X19	Y19	Z19	X20	Y20	Z20	X21	Y21	Z21	X22	Y22	Z22	X23	Y23	Z23	X24	Y24	Z24	X25	Y25	Z25	X26	Y26	Z26	X27	Y27	Z27	X28	Y28	Z28	X29	Y29	Z29	X30	Y30	Z30	X31	Y31	Z31	X32	Y32	Z32	X33	Y33	Z33	X34	Y34	Z34	X35	Y35	Z35	X36	Y36	Z36	X37	Y37	Z37	X38	Y38	Z38	X39	Y39	Z39	X40	Y40	Z40	X41	Y41	Z41	X42	Y42	Z42	X43	Y43	Z43	X44	Y44	Z44	X45	Y45	Z45	X46	Y46	Z46	X47	Y47	Z47	X48	Y48	Z48	
500	2.5000	418.384652	1362.977271	-127.475376	404.184337	1382.987010	-412.713262	317.435117	1512.111637	-260.492546	337.818134	1338.144976	-268.497335	576.126201	1147.665784	-68.020425	793.289378	928.440470	-93.430990	531.844387	1121.832290	-479.991974	793.828458	917.010713	-448.982857	-209.344731	1196.496304	-247.033776	-8.367914	1246.148492	-453.804108	22.948069	1220.236752	-53.891140	25.435603	1172.128540	-419.790472	60.496739	1158.353206	-88.140610	-191.714140	1284.425397	-167.610777	-178.280905	1279.347942	-280.535291	-39.555326	1063.968333	-33.502603	-78.287779	1114.371742	-468.369193	48.872857	948.184012	-31.466103	118.599623	894.526211	-45.004550	151.578349	815.230207	-63.929023	146.372441	917.763971	-53.955300	211.004268	728.600212	-80.987757	208.010580	711.524817	-206.593876	139.363038	583.003506	-67.985090	122.548408	498.334353	-87.165475	66.786220	430.876683	-88.747644	144.666219	491.645828	-119.662686	-2.519776	316.091635	-103.050751	-69.244777	302.147326	-150.381791	210.845591	241.973755	-146.663046	139.575563	221.953969	-76.402778	59.196036	1051.594843	-491.550902	144.051890	1040.014611	-492.856778	160.110490	1072.436024	-484.873330	214.726550	984.118720	-495.504422	337.359112	915.597212	-476.866374	360.058080	916.743382	-351.235509	231.068661	504.961025	-421.129097	180.787874	455.341183	-380.477548	384.269929	431.619769	-458.118376	305.784033	793.095951	-486.103903	312.199957	709.977581	-465.440038	275.158069	630.758748	-452.831741	343.764834	708.899432	-443.795287	478.193043	468.586598	-393.710850	-217.516763	948.162213	-256.921485	-17.981339	80.717700	-460.779348	-17.999714	80.806319	-62.013625	
501	2.5050	418.284453	1362.798492	-127.556362	404.173015	1382.983098	-412.651473	317.319010	1512.085495	-260.529297	337.648820	1338.218555	-268.536666	576.088623	1147.665615	-68.127591	793.301771	928.443763	-93.463438	531.792302	1121.827517	-479.963577	793.824072	917.000809	-448.986912	-209.455944	1196.451877	-247.000317	-8.491156	1246.090529	-453.672262	22.789514	1220.227546	-53.872803	25.412080	1172.147740	-419.718122	60.389258	1158.419737	-88.076611	-191.783179	1284.324757	-167.687918	-178.427943	1279.326409	-280.484636	-39.755171	1063.853670	-33.449606	-78.308210	1114.413981	-468.336799	48.625994	948.136498	-31.394323	118.368924	894.386803	-44.989736	151.337137	815.089262	-63.901180	146.128391	917.639200	-53.943212	210.697342	728.430293	-81.003009	207.738609	711.378375	-206.551015	139.180208	582.769158	-67.946309	122.435279	498.105134	-87.205485	66.761525	430.559886	-88.714543	144.538823	491.369007	-119.661561	-2.433910	315.631888	-103.019074	-69.122421	301.719278	-150.376185	211.008681	241.799642	-146.673694	139.770066	221.657432	-76.414081	59.163388	1051.703071	-491.563336	144.031228	1040.154490	-492.892101	160.089757	1072.589096	-484.874491	214.734871	984.276014	-495.534392	337.303934	915.752204	-476.955265	360.048694	916.936854	-351.317051	230.827967	505.262720	-421.176977	180.514192	455.650419	-380.572372	384.035223	431.968004	-458.134552	305.708483	793.313644	-486.156389	312.048189	710.195660	-465.471541	274.981191	630.970083	-452.823746	343.608850	709.117765	-443.808502	477.956121	468.873201	-393.675901	-217.516563	948.150578	-256.915553	-17.975871	80.775865	-460.813308	-17.986259	80.808673	-62.016718	
502	2.5100	418.163611	1362.642026	-127.612427	404.200037	1383.009579	-412.590239	317.211628	1512.096543	-260.608218	337.520035	1338.231641	-268.561922	576.062399	1147.652630	-68.202687	793.354092	928.455334	-93.470078	531.773658	1121.820101	-479.987298	793.837419	917.009671	-449.015542	-209.540343	1196.404405	-246.996997	-8.556615	1246.082009	-453.697357	22.643963	1220.196319	-53.835077	25.419472	1172.221061	-419.729464	60.305730	1158.440718	-88.017382	-191.833478	1284.204427	-167.774836	-178.533868	1279.298509	-280.439091	-39.947378	1063.761547	-33.407356	-78.336757	1114.519543	-468.312558	48.402491	947.988838	-31.382633	118.128279	894.258943	-44.971433	151.050272	814.922919	-63.907069	145.872460	917.505126	-53.953769	210.387106	728.268074	-81.015602	207.446505	711.273814	-206.553125	138.971456	582.511784	-67.927748	122.319432	497.842380	-87.173381	66.712502	430.244798	-88.697226	144.426648	491.087483	-119.669337	-2.314136	315.173727	-103.003432	-68.987114	301.315944	-150.379812	210.972249	242.042737	-146.430515	139.976420	221.344722	-76.436705	59.150427	1051.847871	-491.557001	144.006743	1040.307176	-492.898298	160.057726	1072.740994	-484.863509	214.722319	984.443562	-495.564296	337.258289	915.972727	-477.017959	360.039021	917.160389	-351.374108	230.610227	505.546121	-421.173146	180.294829	455.918131	-380.537441	383.815037	432.254203	-458.085729	305.630929	793.512211	-486.198974	311.927728	710.381781	-465.480950	274.794820	631.215033	-452.835491	343.464592	709.322641	-443.829057	477.709097	469.183615	-393.662828	-217.514932	948.162718	-256.917134	-17.965890	80.772470	-460.805525	-18.005256	80.822674	-61.998623	
503	2.5150	418.052030	1362.446933	-127.682116	404.212303	1383.011672	-412.522430	317.081916	1512.102551	-260.632980	337.397076	1338.200305	-268.584256	576.029653	1147.660387	-68.280442	793.363661	928.468965	-93.464806	531.758352	1121.850367	-480.052691	793.855494	917.025459	-449.052399	-209.652670	1196.374562	-246.948566	-8.632530	1246.107664	-453.692152	22.475739	1220.178649	-53.795546	25.384691	1172.289199	-419.691807	60.190190	1158.458587	-87.941908	-191.880832	1284.135492	-167.860915	-178.655721	1279.269508	-280.393886	-40.165303	1063.670626	-33.401829	-78.358088	1114.607065	-468.281492	48.149825	947.899890	-31.340406	117.849731	894.103221	-44.961208	150.697434	814.766421	-63.923926	145.599992	917.336269	-53.915062	210.080350	728.112785	-81.019510	207.096349	711.162817	-206.609862	138.787359	582.210717	-67.906659	122.213345	497.604748	-87.163139	66.671075	429.923102	-88.691807	144.296124	490.865456	-119.688123	-2.206616	314.831915	-103.007360	-68.844513	300.669842	-150.256904	211.156594	241.837119	-146.491333	140.192985	221.039150	-76.436782	59.120515	1052.002956	-491.574129	143.978382	1040.489580	-492.890213	160.029360	1072.907006	-484.864280	214.721202	984.618309	-495.595070	337.221836	916.208215	-477.061697	360.043187	917.404899	-351.452411	230.378364	505.861940	-421.206695	180.071379	456.168802	-380.521699	383.547033	432.578913	-458.037444	305.541536	793.743267	-486.283922	311.777691	710.649387	-465.537060	274.590308	631.540101	-452.852623	343.335179	709.547575	-443.871659	477.412258	469.564281	-393.633868	-217.524523	948.156761	-256.926638	-17.978246	80.720508	-460.769347	-17.993894	80.816526	-62.010131	
